<?xml version="1.0" standalone="no"?>
<!DOCTYPE svg PUBLIC "-//W3C//DTD SVG 20010904//EN"
 "http://www.w3.org/TR/2001/REC-SVG-20010904/DTD/svg10.dtd">
<svg version="1.0" xmlns="http://www.w3.org/2000/svg"
 width="217.000000pt" height="29.000000pt" viewBox="0 0 217.000000 29.000000"
 preserveAspectRatio="xMidYMid meet">
<metadata>
Created by potrace 1.10, written by Peter Selinger 2001-2011
</metadata>
<g transform="translate(0.000000,29.000000) scale(0.100000,-0.100000)"
fill="#000000" stroke="none">
<path d="M25 160 c0 -68 1 -70 25 -69 14 0 19 3 13 6 -8 3 -13 26 -13 63 0 37
5 60 13 63 6 3 1 6 -13 6 -24 1 -25 -1 -25 -69z"/>
<path d="M90 160 c0 -81 18 -95 22 -17 l3 52 29 -52 c41 -75 56 -70 56 17 0
40 -4 70 -10 70 -5 0 -10 -26 -10 -57 l-1 -58 -32 57 c-44 78 -57 76 -57 -12z"/>
<path d="M230 160 c0 -40 4 -70 10 -70 6 0 10 14 10 30 0 27 2 30 25 24 15 -4
25 -2 25 5 0 6 -11 11 -25 11 -20 0 -25 5 -25 25 0 20 5 25 24 25 14 0 28 5
31 10 4 6 -10 10 -34 10 l-41 0 0 -70z"/>
<path d="M330 160 c0 -40 4 -70 10 -70 6 0 10 14 10 30 0 38 16 38 38 0 20
-35 57 -41 67 -10 4 14 15 20 35 20 20 0 31 -6 35 -20 3 -11 11 -20 16 -20 11
0 9 9 -20 85 -10 27 -23 51 -29 53 -6 2 -20 -24 -33 -58 -12 -33 -25 -63 -29
-65 -4 -3 -15 6 -24 19 -13 21 -13 26 -1 36 35 29 10 70 -42 70 l-33 0 0 -70z
m67 34 c6 -16 -12 -34 -34 -34 -7 0 -13 11 -13 25 0 18 5 25 20 25 11 0 23 -7
27 -16z m112 -36 c1 -5 -8 -8 -19 -8 -23 0 -24 4 -8 33 11 21 11 21 19 2 4
-11 8 -23 8 -27z"/>
<path d="M572 218 c-23 -23 -13 -48 24 -64 42 -18 40 -38 -4 -42 -43 -4 -41
-22 2 -22 62 0 74 58 16 79 -40 13 -40 41 0 41 17 0 30 5 30 10 0 14 -54 12
-68 -2z"/>
<path d="M660 220 c0 -5 9 -10 20 -10 18 0 20 -7 20 -60 0 -33 4 -60 10 -60 6
0 10 27 10 60 0 53 2 60 20 60 11 0 20 5 20 10 0 6 -22 10 -50 10 -27 0 -50
-4 -50 -10z"/>
<path d="M780 160 c0 -40 4 -70 10 -70 6 0 10 14 10 30 0 38 16 38 38 0 9 -16
23 -30 30 -30 9 0 7 9 -7 29 -18 25 -19 30 -6 41 35 29 10 70 -42 70 l-33 0 0
-70z m67 34 c6 -16 -12 -34 -34 -34 -7 0 -13 11 -13 25 0 18 5 25 20 25 11 0
23 -7 27 -16z"/>
<path d="M900 172 c0 -64 11 -82 51 -82 43 0 59 24 59 86 0 72 -18 69 -22 -3
-3 -57 -3 -58 -33 -58 -30 0 -30 1 -33 58 -4 75 -22 74 -22 -1z"/>
<path d="M1046 208 c-22 -30 -20 -81 2 -101 20 -18 82 -23 82 -7 0 6 -13 10
-28 10 -35 0 -52 16 -52 50 0 34 17 50 52 50 15 0 28 5 28 10 0 6 -15 10 -34
10 -25 0 -39 -7 -50 -22z"/>
<path d="M1150 220 c0 -5 9 -10 20 -10 18 0 20 -7 20 -60 0 -33 4 -60 10 -60
6 0 10 27 10 60 0 53 2 60 20 60 11 0 20 5 20 10 0 6 -22 10 -50 10 -27 0 -50
-4 -50 -10z"/>
<path d="M1270 172 c0 -64 11 -82 51 -82 43 0 59 24 59 86 0 72 -18 69 -22 -3
-3 -57 -3 -58 -33 -58 -30 0 -30 1 -33 58 -4 75 -22 74 -22 -1z"/>
<path d="M1410 160 c0 -40 4 -70 10 -70 6 0 10 14 10 30 0 38 16 38 38 0 9
-16 23 -30 30 -30 9 0 7 9 -7 29 -18 25 -19 30 -6 41 35 29 10 70 -42 70 l-33
0 0 -70z m67 34 c6 -16 -12 -34 -34 -34 -7 0 -13 11 -13 25 0 18 5 25 20 25
11 0 23 -7 27 -16z"/>
<path d="M1530 160 l0 -70 40 0 c22 0 40 5 40 10 0 6 -13 10 -30 10 -26 0 -30
4 -30 26 0 23 3 25 25 20 14 -4 25 -2 25 4 0 5 -11 10 -25 10 -18 0 -25 5 -25
20 0 16 7 20 30 20 17 0 30 5 30 10 0 6 -18 10 -40 10 l-40 0 0 -70z"/>
<path d="M1690 160 c0 -40 4 -70 10 -70 6 0 10 14 10 31 0 28 2 31 25 25 14
-4 25 -2 25 4 0 5 -11 10 -25 10 -21 0 -25 5 -25 29 0 24 3 28 24 24 13 -3 27
0 30 6 5 7 -7 11 -33 11 l-41 0 0 -70z"/>
<path d="M1785 160 c0 -68 1 -70 25 -69 14 0 19 3 13 6 -8 3 -13 26 -13 63 0
37 5 60 13 63 6 3 1 6 -13 6 -24 1 -25 -1 -25 -69z"/>
<path d="M1850 160 c0 -40 4 -70 10 -70 6 0 10 14 10 30 0 38 16 38 38 0 9
-16 23 -30 30 -30 9 0 7 9 -7 29 -18 25 -19 30 -6 41 35 29 10 70 -42 70 l-33
0 0 -70z m65 24 c0 -12 -8 -20 -22 -22 -20 -3 -23 1 -23 27 0 27 2 30 23 22
12 -5 22 -17 22 -27z"/>
<path d="M1970 215 c-18 -21 -3 -52 30 -64 43 -14 39 -41 -5 -41 -19 0 -35 -4
-35 -10 0 -16 66 -12 80 5 18 21 3 52 -30 64 -40 13 -40 41 0 41 17 0 30 5 30
10 0 15 -56 12 -70 -5z"/>
<path d="M2060 219 c0 -6 9 -9 20 -6 18 5 20 0 20 -59 0 -36 4 -64 10 -64 6 0
10 28 10 64 0 59 2 64 20 59 11 -3 20 0 20 6 0 7 -20 11 -50 11 -30 0 -50 -4
-50 -11z"/>
<path d="M620 61 c0 -14 74 -51 100 -51 34 0 17 24 -21 31 -19 3 -44 11 -56
18 -14 7 -23 8 -23 2z"/>
</g>
</svg>
